<svg width="175" height="23" viewBox="0 0 175 23" fill="none" xmlns="http://www.w3.org/2000/svg">
<path d="M0.563965 13.6625C0.563965 12.1321 0.868797 10.777 1.47846 9.59693C2.10606 8.4169 2.94883 7.50423 4.00678 6.8589C5.08265 6.19513 6.27509 5.86325 7.58407 5.86325C8.55236 5.86325 9.50272 6.08451 10.4351 6.52702C11.3855 6.95109 12.1386 7.52266 12.6945 8.24174V0.885019H15.7876V21.3511H12.6945V19.0556C12.1924 19.7931 11.4931 20.4015 10.5965 20.8809C9.7179 21.3603 8.70478 21.6 7.55717 21.6C6.26612 21.6 5.08265 21.2681 4.00678 20.6044C2.94883 19.9221 2.10606 18.9818 1.47846 17.7834C0.868797 16.5665 0.563965 15.1928 0.563965 13.6625ZM12.6945 13.7178C12.6945 12.6668 12.4793 11.7542 12.049 10.9798C11.6365 10.2054 11.0896 9.61537 10.4083 9.20973C9.72686 8.8041 8.99168 8.60128 8.2027 8.60128C7.41372 8.60128 6.67854 8.8041 5.99715 9.20973C5.31576 9.59693 4.75989 10.1777 4.32954 10.9521C3.91712 11.7081 3.71091 12.6115 3.71091 13.6625C3.71091 14.7134 3.91712 15.6353 4.32954 16.4282C4.75989 17.221 5.31576 17.8294 5.99715 18.2535C6.69647 18.6592 7.43165 18.862 8.2027 18.862C8.99168 18.862 9.72686 18.6592 10.4083 18.2535C11.0896 17.8479 11.6365 17.2579 12.049 16.4835C12.4793 15.6907 12.6945 14.7688 12.6945 13.7178Z" fill="#2D4A22"/>
<path d="M33.398 13.3583C33.398 13.9298 33.3621 14.4461 33.2904 14.907H21.9668C22.0565 16.1239 22.4958 17.1012 23.2847 17.8387C24.0737 18.5762 25.042 18.9449 26.1896 18.9449C27.8393 18.9449 29.0048 18.2351 29.6862 16.8154H32.9945C32.5463 18.2166 31.7304 19.369 30.5469 20.2725C29.3814 21.1575 27.929 21.6 26.1896 21.6C24.773 21.6 23.4999 21.2773 22.3703 20.632C21.2585 19.9682 20.3799 19.0464 19.7344 17.8663C19.1068 16.6679 18.793 15.285 18.793 13.7178C18.793 12.1506 19.0978 10.777 19.7075 9.59693C20.335 8.39846 21.2047 7.47657 22.3165 6.83124C23.4461 6.18591 24.7372 5.86325 26.1896 5.86325C27.5883 5.86325 28.8345 6.1767 29.9283 6.80359C31.0221 7.43047 31.8738 8.31549 32.4835 9.45864C33.0932 10.5834 33.398 11.8832 33.398 13.3583ZM30.1973 12.3626C30.1793 11.201 29.7759 10.2699 28.9869 9.56927C28.1979 8.86863 27.2207 8.51831 26.0551 8.51831C24.9972 8.51831 24.0917 8.86863 23.3385 9.56927C22.5854 10.2515 22.1371 11.1826 21.9937 12.3626H30.1973Z" fill="#2D4A22"/>
<path d="M42.1446 18.5301L46.3405 6.11216H49.595L43.9467 21.3511H40.2887L34.6672 6.11216H37.9486L42.1446 18.5301Z" fill="#2D4A22"/>
<path d="M53.15 21.5447C52.5942 21.5447 52.128 21.3511 51.7514 20.9639C51.3748 20.5767 51.1866 20.0973 51.1866 19.5257C51.1866 18.9542 51.3748 18.4748 51.7514 18.0876C52.128 17.7004 52.5942 17.5068 53.15 17.5068C53.688 17.5068 54.1452 17.7004 54.5218 18.0876C54.8983 18.4748 55.0866 18.9542 55.0866 19.5257C55.0866 20.0973 54.8983 20.5767 54.5218 20.9639C54.1452 21.3511 53.688 21.5447 53.15 21.5447Z" fill="#2D4A22"/>
<path d="M64.6138 8.68425H61.8703V21.3511H58.7772V8.68425H57.0289V6.11216H58.7772V5.03355C58.7772 3.28194 59.2255 2.00973 60.122 1.2169C61.0365 0.405634 62.4621 0 64.3986 0V2.6274C63.4662 2.6274 62.8117 2.81178 62.4352 3.18054C62.0586 3.53086 61.8703 4.14853 61.8703 5.03355V6.11216H64.6138V8.68425Z" fill="#2D4A22"/>
<path d="M68.8913 4.09321C68.3354 4.09321 67.8692 3.89962 67.4926 3.51242C67.1161 3.12522 66.9278 2.64584 66.9278 2.07426C66.9278 1.50269 67.1161 1.0233 67.4926 0.636108C67.8692 0.248911 68.3354 0.055313 68.8913 0.055313C69.4292 0.055313 69.8865 0.248911 70.263 0.636108C70.6396 1.0233 70.8279 1.50269 70.8279 2.07426C70.8279 2.64584 70.6396 3.12522 70.263 3.51242C69.8865 3.89962 69.4292 4.09321 68.8913 4.09321ZM70.3975 6.11216V21.3511H67.3313V6.11216H70.3975Z" fill="#2D4A22"/>
<path d="M81.9006 5.86325C83.0661 5.86325 84.1061 6.11216 85.0206 6.60999C85.953 7.10781 86.6793 7.84533 87.1993 8.82254C87.7193 9.79974 87.9793 10.9798 87.9793 12.3626V21.3511H84.9399V12.8328C84.9399 11.4684 84.6082 10.4266 83.9447 9.70755C83.2813 8.97004 82.3758 8.60128 81.2281 8.60128C80.0805 8.60128 79.166 8.97004 78.4847 9.70755C77.8212 10.4266 77.4895 11.4684 77.4895 12.8328V21.3511H74.4232V6.11216H77.4895V7.85455C77.9915 7.22766 78.6281 6.73905 79.3992 6.38873C80.1881 6.03841 81.0219 5.86325 81.9006 5.86325Z" fill="#2D4A22"/>
<path d="M90.8684 13.6625C90.8684 12.1321 91.1732 10.777 91.7829 9.59693C92.4105 8.4169 93.2533 7.50423 94.3112 6.8589C95.3871 6.19513 96.5705 5.86325 97.8616 5.86325C99.0271 5.86325 100.04 6.10295 100.901 6.58233C101.78 7.04328 102.479 7.62407 102.999 8.32471V6.11216H106.092V21.3511H102.999V19.0832C102.479 19.8023 101.771 20.4015 100.874 20.8809C99.9775 21.3603 98.9554 21.6 97.8078 21.6C96.5347 21.6 95.3692 21.2681 94.3112 20.6044C93.2533 19.9221 92.4105 18.9818 91.7829 17.7834C91.1732 16.5665 90.8684 15.1928 90.8684 13.6625ZM102.999 13.7178C102.999 12.6668 102.784 11.7542 102.353 10.9798C101.941 10.2054 101.394 9.61537 100.713 9.20973C100.031 8.8041 99.2961 8.60128 98.5071 8.60128C97.7182 8.60128 96.983 8.8041 96.3016 9.20973C95.6202 9.59693 95.0643 10.1777 94.634 10.9521C94.2215 11.7081 94.0153 12.6115 94.0153 13.6625C94.0153 14.7134 94.2215 15.6353 94.634 16.4282C95.0643 17.221 95.6202 17.8294 96.3016 18.2535C97.0009 18.6592 97.7361 18.862 98.5071 18.862C99.2961 18.862 100.031 18.6592 100.713 18.2535C101.394 17.8479 101.941 17.2579 102.353 16.4835C102.784 15.6907 102.999 14.7688 102.999 13.7178Z" fill="#2D4A22"/>
<path d="M117.597 5.86325C118.762 5.86325 119.802 6.11216 120.717 6.60999C121.649 7.10781 122.376 7.84533 122.896 8.82254C123.416 9.79974 123.676 10.9798 123.676 12.3626V21.3511H120.636V12.8328C120.636 11.4684 120.304 10.4266 119.641 9.70755C118.978 8.97004 118.072 8.60128 116.924 8.60128C115.777 8.60128 114.862 8.97004 114.181 9.70755C113.517 10.4266 113.186 11.4684 113.186 12.8328V21.3511H110.119V6.11216H113.186V7.85455C113.688 7.22766 114.324 6.73905 115.095 6.38873C115.884 6.03841 116.718 5.86325 117.597 5.86325Z" fill="#2D4A22"/>
<path d="M126.565 13.7178C126.565 12.1506 126.869 10.777 127.479 9.59693C128.107 8.39846 128.967 7.47657 130.061 6.83124C131.155 6.18591 132.41 5.86325 133.827 5.86325C135.62 5.86325 137.099 6.30576 138.265 7.19078C139.448 8.05736 140.246 9.30192 140.659 10.9245H137.35C137.081 10.1685 136.651 9.57849 136.059 9.15442C135.468 8.73035 134.723 8.51831 133.827 8.51831C132.572 8.51831 131.567 8.97926 130.814 9.90115C130.079 10.8046 129.712 12.0768 129.712 13.7178C129.712 15.3588 130.079 16.6402 130.814 17.5621C131.567 18.484 132.572 18.9449 133.827 18.9449C135.602 18.9449 136.777 18.1429 137.35 16.5388H140.659C140.228 18.0876 139.421 19.3229 138.238 20.2448C137.054 21.1483 135.584 21.6 133.827 21.6C132.41 21.6 131.155 21.2773 130.061 20.632C128.967 19.9682 128.107 19.0464 127.479 17.8663C126.869 16.6679 126.565 15.285 126.565 13.7178Z" fill="#2D4A22"/>
<path d="M157.297 13.3583C157.297 13.9298 157.262 14.4461 157.19 14.907H145.866C145.956 16.1239 146.395 17.1012 147.184 17.8387C147.973 18.5762 148.941 18.9449 150.089 18.9449C151.739 18.9449 152.904 18.2351 153.586 16.8154H156.894C156.446 18.2166 155.63 19.369 154.446 20.2725C153.281 21.1575 151.828 21.6 150.089 21.6C148.672 21.6 147.399 21.2773 146.27 20.632C145.158 19.9682 144.279 19.0464 143.634 17.8663C143.006 16.6679 142.692 15.285 142.692 13.7178C142.692 12.1506 142.997 10.777 143.607 9.59693C144.234 8.39846 145.104 7.47657 146.216 6.83124C147.345 6.18591 148.637 5.86325 150.089 5.86325C151.488 5.86325 152.734 6.1767 153.828 6.80359C154.921 7.43047 155.773 8.31549 156.383 9.45864C156.993 10.5834 157.297 11.8832 157.297 13.3583ZM154.097 12.3626C154.079 11.201 153.675 10.2699 152.886 9.56927C152.097 8.86863 151.12 8.51831 149.954 8.51831C148.897 8.51831 147.991 8.86863 147.238 9.56927C146.485 10.2515 146.036 11.1826 145.893 12.3626H154.097Z" fill="#2D4A22"/>
<path d="M53.1505 21.5447C52.5946 21.5447 52.1284 21.3511 51.7518 20.9639C51.3753 20.5767 51.187 20.0974 51.187 19.5258C51.187 18.9542 51.3753 18.4748 51.7518 18.0876C52.1284 17.7004 52.5946 17.5068 53.1505 17.5068C53.6884 17.5068 54.1457 17.7004 54.5222 18.0876C54.8988 18.4748 55.0871 18.9542 55.0871 19.5258C55.0871 20.0974 54.8988 20.5767 54.5222 20.9639C54.1457 21.3511 53.6884 21.5447 53.1505 21.5447Z" fill="#49AA26"/>
<path d="M174.436 15.7249C174.436 16.5056 174.21 17.2395 173.758 17.9265C173.323 18.6135 172.672 19.1913 171.803 19.6597C170.952 20.1281 169.939 20.4092 168.763 20.5029V22.4H166.998V20.5029C165.297 20.3623 163.922 19.9017 162.872 19.121C161.822 18.3403 161.297 17.3098 161.297 16.0294H164.609C164.664 16.6383 164.89 17.1458 165.288 17.5518C165.686 17.9421 166.256 18.192 166.998 18.3013V13.1486C165.786 12.8831 164.799 12.6177 164.039 12.3522C163.279 12.0712 162.628 11.634 162.085 11.0406C161.56 10.4473 161.297 9.63536 161.297 8.60482C161.297 7.30884 161.822 6.23926 162.872 5.3961C163.922 4.53731 165.297 4.03766 166.998 3.89713V2H168.763V3.89713C170.355 4.02204 171.631 4.45924 172.59 5.20873C173.568 5.9426 174.12 6.95752 174.246 8.2535H170.934C170.88 7.76946 170.663 7.34007 170.283 6.96533C169.903 6.57497 169.396 6.30953 168.763 6.169V11.228C169.975 11.4778 170.962 11.7433 171.722 12.0243C172.482 12.2898 173.124 12.7192 173.649 13.3125C174.174 13.8902 174.436 14.6944 174.436 15.7249ZM164.446 8.46429C164.446 9.10448 164.664 9.60413 165.098 9.96326C165.55 10.3224 166.184 10.6113 166.998 10.8299V6.09874C166.22 6.17681 165.596 6.41883 165.125 6.8248C164.673 7.23077 164.446 7.77727 164.446 8.46429ZM168.763 18.3013C169.559 18.192 170.183 17.9187 170.636 17.4815C171.088 17.0287 171.314 16.49 171.314 15.8654C171.314 15.2409 171.088 14.7568 170.636 14.4133C170.201 14.0542 169.577 13.7653 168.763 13.5467V18.3013Z" fill="#49AA26"/>
</svg>
